HIERARCHY
ROOT Hips
{
	OFFSET 0.00000 0.00000 0.00000
	CHANNELS 6 Xposition Yposition Zposition Zrotation Yrotation Xrotation 
	JOINT LHipJoint
	{
		OFFSET 0 0 0
		CHANNELS 3 Zrotation Yrotation Xrotation
		JOINT LeftUpLeg
		{
			OFFSET 1.34019 -1.87553 0.90315
			CHANNELS 3 Zrotation Yrotation Xrotation
			JOINT LeftLeg
			{
				OFFSET 2.55316 -7.01474 0.00000
				CHANNELS 3 Zrotation Yrotation Xrotation
				JOINT LeftFoot
				{
					OFFSET 2.64657 -7.27139 0.00000
					CHANNELS 3 Zrotation Yrotation Xrotation
					JOINT LeftToeBase
					{
						OFFSET 0.24207 -0.66507 2.14489
						CHANNELS 3 Zrotation Yrotation Xrotation
						End Site
						{
							OFFSET 0.00000 -0.00000 1.12451
						}
					}
				}
			}
		}
	}
	JOINT RHipJoint
	{
		OFFSET 0 0 0
		CHANNELS 3 Zrotation Yrotation Xrotation
		JOINT RightUpLeg
		{
			OFFSET -1.28320 -1.87553 0.90315
			CHANNELS 3 Zrotation Yrotation Xrotation
			JOINT RightLeg
			{
				OFFSET -2.60484 -7.15674 0.00000
				CHANNELS 3 Zrotation Yrotation Xrotation
				JOINT RightFoot
				{
					OFFSET -2.60296 -7.15159 0.00000
					CHANNELS 3 Zrotation Yrotation Xrotation
					JOINT RightToeBase
					{
						OFFSET -0.31082 -0.85398 2.28998
						CHANNELS 3 Zrotation Yrotation Xrotation
						End Site
						{
							OFFSET -0.00000 -0.00000 1.21611
						}
					}
				}
			}
		}
	}
	JOINT LowerBack
	{
		OFFSET 0 0 0
		CHANNELS 3 Zrotation Yrotation Xrotation
		JOINT Spine
		{
			OFFSET -0.00160 2.05581 -0.15156
			CHANNELS 3 Zrotation Yrotation Xrotation
			JOINT Spine1
			{
				OFFSET 0.04594 2.06326 -0.01617
				CHANNELS 3 Zrotation Yrotation Xrotation
				JOINT Neck
				{
					OFFSET 0 0 0
					CHANNELS 3 Zrotation Yrotation Xrotation
					JOINT Neck1
					{
						OFFSET 0.03753 1.73883 0.26751
						CHANNELS 3 Zrotation Yrotation Xrotation
						JOINT Head
						{
							OFFSET -0.09795 1.76129 -0.31794
							CHANNELS 3 Zrotation Yrotation Xrotation
							End Site
							{
								OFFSET -0.03611 1.79987 -0.13846
							}
						}
					}
				}
				JOINT LeftShoulder
				{
					OFFSET 0 0 0
					CHANNELS 3 Zrotation Yrotation Xrotation
					JOINT LeftArm
					{
						OFFSET 3.30667 1.29205 -0.22445
						CHANNELS 3 Zrotation Yrotation Xrotation
						JOINT LeftForeArm
						{
							OFFSET 4.92785 -0.00000 -0.00000
							CHANNELS 3 Zrotation Yrotation Xrotation
							JOINT LeftHand
							{
								OFFSET 3.44052 -0.00000 0.00000
								CHANNELS 3 Zrotation Yrotation Xrotation
								JOINT LeftFingerBase
								{
									OFFSET 0 0 0
									CHANNELS 3 Zrotation Yrotation Xrotation
									JOINT LeftHandIndex1
									{
										OFFSET 0.65433 -0.00000 0.00000
										CHANNELS 3 Zrotation Yrotation Xrotation
										End Site
										{
											OFFSET 0.52753 -0.00000 0.00000
										}
									}
								}
								JOINT LThumb
								{
									OFFSET 0 0 0
									CHANNELS 3 Zrotation Yrotation Xrotation
									End Site
									{
										OFFSET 0.53559 -0.00000 0.53559
									}
								}
							}
						}
					}
				}
				JOINT RightShoulder
				{
					OFFSET 0 0 0
					CHANNELS 3 Zrotation Yrotation Xrotation
					JOINT RightArm
					{
						OFFSET -3.20032 1.49783 -0.27688
						CHANNELS 3 Zrotation Yrotation Xrotation
						JOINT RightForeArm
						{
							OFFSET -5.09181 -0.00000 -0.00000
							CHANNELS 3 Zrotation Yrotation Xrotation
							JOINT RightHand
							{
								OFFSET -3.49865 -0.00000 -0.00000
								CHANNELS 3 Zrotation Yrotation Xrotation
								JOINT RightFingerBase
								{
									OFFSET 0 0 0
									CHANNELS 3 Zrotation Yrotation Xrotation
									JOINT RightHandIndex1
									{
										OFFSET -0.66641 -0.00000 0.00000
										CHANNELS 3 Zrotation Yrotation Xrotation
										End Site
										{
											OFFSET -0.53728 -0.00000 0.00000
										}
									}
								}
								JOINT RThumb
								{
									OFFSET 0 0 0
									CHANNELS 3 Zrotation Yrotation Xrotation
									End Site
									{
										OFFSET -0.54548 -0.00000 0.54548
									}
								}
							}
						}
					}
				}
			}
		}
	}
}
MOTION
Frames: 10
Frame Time: .0083333
1.5847 18.1751 -1.3164 -4.3798 4.8397 1.1012 0.0000 0.0000 0.0000 -12.9952 -5.6232 -17.2470 2.4913 9.8220 28.4024 -0.1302 7.8905 -7.8228 0.3315 -3.7003 -10.2350 0.0000 0.0000 0.0000 17.2141 -5.8639 5.6296 -3.9126 -12.0431 35.8847 0.0727 -10.2712 5.9486 -0.5831 4.8896 -13.5940 -0.5876 0.0646 7.3407 2.4385 0.1148 1.4692 2.8391 0.0686 -2.6040 3.6105 0.5382 -21.1091 -3.9825 0.9013 33.4015 -2.1341 0.2757 15.2739 0.0000 -0.0000 0.0000 -26.8546 5.5474 -26.7601 18.0934 -28.2766 -4.5934 -0.0000 -0.0000 1.4748 17.1164 4.8549 1.4930 -7.1250 0.0000 -0.0000 -7.9163 34.9703 1.9653 0.0000 -0.0000 0.0000 26.6660 -11.6175 -32.2385 -14.6513 23.6580 -3.0846 0.0000 -0.0000 -0.6960 -22.3964 -6.8837 2.8276 7.1250 -0.0000 -0.0000 3.7288 -37.3958 0.6990
1.6173 18.1832 -1.2378 -4.3297 4.6876 1.1354 0.0000 0.0000 0.0000 -13.1805 -5.5275 -16.8941 2.4727 9.7881 28.2932 -0.1339 8.0682 -8.0801 0.3298 -3.6907 -10.2081 0.0000 0.0000 0.0000 16.9375 -5.6551 4.8793 -4.1962 -12.4170 37.2237 0.0086 -10.3490 7.1173 -0.4657 4.3773 -12.1406 -0.8054 0.0821 7.3604 2.3189 0.1180 1.4495 2.8379 0.0719 -2.6356 3.6310 0.5613 -21.1159 -3.8308 0.8689 33.3662 -2.0788 0.2860 15.2565 0.0000 -0.0000 0.0000 -26.9994 5.5100 -26.7869 18.0793 -28.2585 -4.5867 -0.0000 -0.0000 1.4794 17.1276 4.8545 1.4939 -7.1250 0.0000 -0.0000 -7.9070 34.9704 1.9630 0.0000 -0.0000 0.0000 26.5101 -11.5677 -32.0919 -14.6940 23.7181 -3.1018 0.0000 -0.0000 -0.7376 -22.3459 -6.9221 2.8362 7.1250 -0.0000 -0.0000 3.7755 -37.4340 0.7042
1.6485 18.1911 -1.1612 -4.2680 4.5315 1.1602 0.0000 0.0000 0.0000 -13.3788 -5.4342 -16.5168 2.4487 9.7440 28.1515 -0.1392 8.2658 -8.3243 0.3268 -3.6743 -10.1621 0.0000 0.0000 0.0000 16.6633 -5.4248 4.1225 -4.4899 -12.7852 38.5696 -0.0623 -10.5067 8.3195 -0.3748 3.9323 -10.8862 -1.0388 0.1003 7.3929 2.1959 0.1205 1.4354 2.8421 0.0750 -2.6686 3.6670 0.5889 -21.0910 -3.6889 0.8411 33.2907 -2.0283 0.2986 15.2134 0.0000 0.0000 0.0000 -27.1361 5.4712 -26.8186 18.0571 -28.2302 -4.5762 -0.0000 -0.0000 1.4654 17.1355 4.8466 1.4922 -7.1250 0.0000 -0.0000 -7.8996 34.9625 1.9626 0.0000 0.0000 0.0000 26.3534 -11.5138 -31.9230 -14.7410 23.7841 -3.1208 0.0000 -0.0000 -0.7973 -22.3160 -6.9634 2.8488 7.1250 -0.0000 -0.0000 3.8048 -37.4764 0.7058
1.6780 18.1986 -1.0868 -4.2077 4.3814 1.1740 0.0000 0.0000 0.0000 -13.5737 -5.3451 -16.1215 2.4204 9.6918 27.9843 -0.1457 8.4720 -8.5493 0.3234 -3.6550 -10.1081 0.0000 0.0000 0.0000 16.4095 -5.1797 3.3666 -4.7908 -13.1442 39.9108 -0.1420 -10.7524 9.5720 -0.2918 3.4740 -9.6012 -1.2775 0.1150 7.4400 2.0763 0.1178 1.4287 2.8533 0.0755 -2.7016 3.7361 0.6263 -21.0784 -3.5834 0.8277 33.1953 -1.9959 0.3159 15.1651 0.0000 -0.0000 0.0000 -27.2712 5.4353 -26.8411 18.0396 -28.2079 -4.5680 -0.0000 -0.0000 1.4256 17.1340 4.8866 1.5043 -7.1250 0.0000 -0.0000 -7.9057 35.0039 1.9561 0.0000 -0.0000 0.0000 26.1934 -11.4486 -31.7351 -14.7929 23.8568 -3.1417 0.0000 -0.0000 -0.8820 -22.3064 -7.0170 2.8692 7.1250 -0.0000 -0.0000 3.8182 -37.5335 0.7029
1.7059 18.2060 -1.0145 -4.1518 4.2472 1.1836 0.0000 0.0000 0.0000 -13.7607 -5.2608 -15.7203 2.3887 9.6327 27.7953 -0.1528 8.6733 -8.7535 0.3200 -3.6360 -10.0547 0.0000 0.0000 0.0000 16.1785 -4.9320 2.6042 -5.0974 -13.4927 41.2419 -0.2329 -11.0824 10.8860 -0.2123 2.9664 -8.1853 -1.5133 0.1262 7.4986 1.9582 0.1102 1.4185 2.8649 0.0738 -2.7444 3.7425 0.6448 -21.0761 -3.4193 0.7899 33.1457 -1.9339 0.3238 15.1389 -0.0000 0.0000 0.0000 -27.3954 5.3853 -26.8670 18.0100 -28.1700 -4.5540 -0.0000 -0.0000 1.4085 17.1348 4.9533 1.5249 -7.1250 0.0000 -0.0000 -7.9132 35.0730 1.9446 -0.0000 0.0000 0.0000 26.0336 -11.3929 -31.5284 -14.8501 23.9368 -3.1649 0.0000 -0.0000 -0.9775 -22.3166 -7.0932 2.9016 7.1250 -0.0000 -0.0000 3.8171 -37.6161 0.6950
1.7319 18.2132 -0.9445 -4.1167 4.1282 1.1866 0.0000 0.0000 0.0000 -13.9184 -5.1766 -15.3191 2.3546 9.5685 27.5905 -0.1598 8.8612 -8.9367 0.3172 -3.6206 -10.0115 0.0000 0.0000 0.0000 15.9932 -4.6806 1.8415 -5.4081 -13.8291 42.5571 -0.3371 -11.5046 12.2704 -0.1322 2.3439 -6.4569 -1.7342 0.1319 7.5653 1.8479 0.0963 1.4113 2.8769 0.0689 -2.7883 3.8023 0.6776 -21.0811 -3.3031 0.7706 33.1239 -1.8986 0.3395 15.1290 -0.0000 -0.0000 0.0000 -27.5141 5.3366 -26.8790 17.9807 -28.1325 -4.5401 -0.0000 -0.0000 1.3650 17.1422 5.0361 1.5510 -7.1250 0.0000 -0.0000 -7.9173 35.1591 1.9289 -0.0000 -0.0000 0.0000 25.8696 -11.3176 -31.3572 -14.8968 24.0022 -3.1839 0.0000 -0.0000 -1.0278 -22.3180 -7.1415 2.9215 7.1250 -0.0000 -0.0000 3.8206 -37.6681 0.6907
1.7564 18.2205 -0.8764 -4.0742 4.0411 1.1920 0.0000 0.0000 0.0000 -14.0798 -5.1096 -14.9208 2.3187 9.5005 27.3738 -0.1661 9.0311 -9.1059 0.3148 -3.6065 -9.9723 0.0000 0.0000 0.0000 15.8176 -4.4495 1.0699 -5.7211 -14.1525 43.8520 -0.4566 -11.9725 13.7091 -0.0602 1.5828 -4.3541 -1.9608 0.1293 7.6292 1.7361 0.0703 1.4084 2.8918 0.0581 -2.8254 3.8643 0.7105 -21.0959 -3.1933 0.7518 33.0606 -1.8655 0.3544 15.1021 -0.0000 -0.0000 0.0000 -27.6218 5.2623 -26.9061 17.9364 -28.0757 -4.5193 -0.0000 -0.0000 1.3653 17.1483 5.1221 1.5780 -7.1250 0.0000 -0.0000 -7.9231 35.2484 1.9130 -0.0000 -0.0000 0.0000 25.7031 -11.2460 -31.1693 -14.9455 24.0701 -3.2037 0.0000 -0.0000 -1.1395 -22.3274 -7.1560 2.9287 7.1250 -0.0000 -0.0000 3.8141 -37.6843 0.6880
1.7793 18.2275 -0.8100 -4.0435 3.9802 1.1945 0.0000 0.0000 0.0000 -14.2217 -5.0508 -14.5261 2.2818 9.4300 27.1499 -0.1710 9.1767 -9.2680 0.3121 -3.5917 -9.9306 0.0000 0.0000 0.0000 15.6737 -4.2368 0.2965 -6.0343 -14.4615 45.1193 -0.5901 -12.4742 15.1729 -0.0123 0.7157 -1.9668 -2.1769 0.1185 7.6874 1.6332 0.0342 1.4157 2.9109 0.0419 -2.8478 3.9205 0.7426 -21.1153 -3.0903 0.7369 33.0138 -1.8340 0.3693 15.0841 0.0000 0.0000 0.0000 -27.7311 5.1648 -26.9566 17.8789 -28.0018 -4.4922 -0.0000 -0.0000 1.3931 17.1838 5.1956 1.6041 -7.1250 0.0000 -0.0000 -7.9030 35.3262 1.8929 0.0000 0.0000 0.0000 25.5224 -11.1242 -31.1245 -14.9632 24.0948 -3.2109 0.0000 -0.0000 -1.0863 -22.3000 -7.1251 2.9122 7.1250 -0.0000 -0.0000 3.8342 -37.6493 0.6950
1.8010 18.2338 -0.7450 -4.0090 3.9455 1.1938 0.0000 0.0000 0.0000 -14.3620 -5.0106 -14.1286 2.2445 9.3579 26.9213 -0.1748 9.3059 -9.4308 0.3087 -3.5717 -9.8748 0.0000 0.0000 0.0000 15.5424 -4.0443 -0.4685 -6.3457 -14.7552 46.3540 -0.7304 -12.9922 16.5905 -0.0011 -0.2127 0.5843 -2.3968 0.0997 7.7429 1.5328 -0.0129 1.4324 2.9358 0.0199 -2.8581 3.9715 0.7741 -21.1418 -2.9929 0.7248 32.9579 -1.8034 0.3837 15.0638 0.0000 0.0000 0.0000 -27.8403 5.0479 -27.0342 17.8132 -27.9173 -4.4614 -0.0000 -0.0000 1.4542 17.2005 5.2475 1.6217 -7.1250 0.0000 -0.0000 -7.8956 35.3807 1.8806 0.0000 0.0000 0.0000 25.3344 -11.0031 -31.0579 -14.9873 24.1284 -3.2207 0.0000 -0.0000 -1.0899 -22.2880 -7.1003 2.9004 7.1250 -0.0000 -0.0000 3.8421 -37.6219 0.6990
1.8216 18.2395 -0.6811 -3.9774 3.9352 1.1849 0.0000 0.0000 0.0000 -14.4955 -4.9852 -13.7252 2.2078 9.2861 26.6944 -0.1772 9.4184 -9.5999 0.3041 -3.5457 -9.8020 0.0000 0.0000 0.0000 15.4293 -3.8698 -1.2186 -6.6528 -15.0324 47.5486 -0.8688 -13.4901 17.8915 -0.0245 -1.0113 2.7799 -2.6126 0.0743 7.7904 1.4405 -0.0683 1.4640 2.9676 -0.0067 -2.8478 4.0215 0.8067 -21.1952 -2.9109 0.7190 32.8868 -1.7777 0.3982 15.0429 -0.0000 0.0000 0.0000 -27.9581 4.9005 -27.1380 17.7413 -27.8246 -4.4278 -0.0000 -0.0000 1.5343 17.2112 5.2600 1.6266 -7.1250 0.0000 -0.0000 -7.8883 35.3941 1.8762 -0.0000 0.0000 0.0000 25.1382 -10.8719 -31.0315 -15.0099 24.1598 -3.2300 0.0000 -0.0000 -1.0753 -22.2718 -7.0436 2.8751 7.1250 -0.0000 -0.0000 3.8502 -37.5599 0.7063
